<svg width="35" height="37" viewBox="0 0 35 37" fill="none" xmlns="http://www.w3.org/2000/svg">
<path d="M22.3644 3.31293L20.7388 7.15534H17.3397C12.6845 7.15534 7.21645 9.96325 2.93069 14.5446C0.0488905 17.6481 -0.394464 18.4609 0.270568 19.6432C1.60063 22.2294 8.76819 27.6235 12.6845 29.0275C12.7584 29.0275 12.315 30.5053 11.7239 32.2788C11.1328 33.9783 10.6155 35.7517 10.6155 36.1951C10.6155 37.9685 11.9456 35.3822 13.9407 29.8403C15.1968 26.2196 16.3791 24.1506 17.0441 24.1506C17.7831 24.1506 18.0047 24.5939 17.7092 25.3329C17.4875 25.9979 17.0441 27.328 16.7486 28.3625C16.0835 31.3182 17.7092 29.7664 18.8176 26.5152C19.2609 25.0373 20.4432 22.9683 21.4038 22.0077C23.4728 19.9387 23.5467 20.0126 22.0688 24.1506C20.8127 27.7713 20.6649 29.2492 21.6255 28.2147C21.9949 27.7713 23.5467 23.855 25.0245 19.4954C26.9457 14.1751 28.0541 11.7367 28.5714 12.2539C29.0886 12.7712 28.5714 15.1357 27.0196 19.4954C24.5073 26.4413 24.2856 27.4019 25.3201 26.8107C25.6896 26.589 26.8718 23.7072 28.0541 20.456C29.1625 17.2047 30.3448 14.5446 30.6403 14.5446C31.8965 14.5446 31.9704 16.0224 30.9359 18.9781C30.3448 20.6777 29.8275 22.5989 29.8275 23.19C29.8275 25.259 31.0837 23.4117 32.0443 20.0126C32.931 16.9091 33.1527 16.6875 34.0394 17.9436C34.5566 18.6826 35 18.9042 35 18.4609C35 17.0569 27.9063 10.4805 24.8028 9.07654L21.7733 7.74648L23.2511 3.97797C25.1723 -0.898933 24.3595 -1.49007 22.3644 3.31293ZM19.5565 10.3327C19.2609 11.1455 17.9309 12.2539 16.6747 12.6234C15.4185 13.0667 13.7929 14.0273 13.1278 14.6924C11.4283 16.318 11.5022 20.0865 13.2017 21.8599C14.4579 23.3378 14.3101 27.1063 12.9801 27.1063C11.7978 27.1063 8.32484 22.8205 7.7337 20.7515C6.40364 15.8008 10.0983 9.74157 15.1229 8.70708C18.8176 7.89426 20.2215 8.41151 19.5565 10.3327ZM22.2166 12.4017C21.3299 14.5446 21.0343 14.6924 20.591 13.584C19.8521 11.8106 21.4777 8.11594 22.5122 9.15044C23.0294 9.66768 22.9555 10.7022 22.2166 12.4017ZM26.2807 10.5544C26.5763 10.7761 26.059 12.9928 25.1723 15.5052C23.6945 19.7909 23.5467 19.9387 23.1772 17.8697C22.9555 16.6136 23.2511 14.3968 23.8422 12.8451C24.8767 10.1849 25.394 9.66768 26.2807 10.5544ZM7.21645 13.584C6.69921 14.7663 6.18196 16.8352 6.18196 18.2392C6.18196 19.6432 6.69921 21.7121 7.21645 22.8205C8.76819 25.7762 7.65981 25.3329 3.96519 21.5644L0.713922 18.2392L3.96519 14.914C7.65981 11.1455 8.76819 10.7022 7.21645 13.584ZM17.5614 15.4313C17.3397 16.3919 16.6008 18.3131 16.0096 19.717C14.9752 22.1555 14.9013 22.2294 13.8668 20.8993C12.4628 18.9042 12.5367 17.0569 14.3101 15.2835C16.3791 13.2145 18.2264 13.2884 17.5614 15.4313ZM21.6994 18.387C21.6994 20.0126 19.187 22.6727 17.5614 22.6727C16.3052 22.6727 16.5269 21.6383 18.522 16.7614C19.5565 14.3229 19.6304 14.249 20.6649 15.5791C21.256 16.3919 21.6994 17.6481 21.6994 18.387Z" fill="white"/>
</svg>
